<svg width="22" height="22" viewBox="0 0 22 22" fill="none" xmlns="http://www.w3.org/2000/svg">
<g clip-path="url(#clip0)">
<path d="M14.5223 8.87829C14.5787 8.66813 14.5492 8.44423 14.4404 8.25584L13.3466 6.36141C13.1201 5.96908 12.6184 5.83466 12.2261 6.06117L11.4822 6.49063C10.8777 5.95497 10.1776 5.55034 9.41387 5.29538V4.4375C9.41387 3.98447 9.04659 3.61719 8.59356 3.61719H6.40606C5.95303 3.61719 5.58575 3.98447 5.58575 4.4375V5.29533C4.82204 5.55028 4.12182 5.95491 3.51736 6.49058L2.77355 6.06112C2.38122 5.83449 1.87946 5.96897 1.653 6.36135L0.559254 8.25578C0.332738 8.64811 0.467161 9.14981 0.859489 9.37633L1.60313 9.80568C1.52405 10.1974 1.48413 10.597 1.48413 10.9999C1.48413 11.4029 1.524 11.8025 1.60313 12.1942L0.859489 12.6236C0.467161 12.8501 0.332738 13.3518 0.559254 13.7441L1.653 15.6385C1.87952 16.0309 2.38117 16.1653 2.77355 15.9388L3.51736 15.5093C4.12182 16.045 4.82198 16.4496 5.58575 16.7046V17.5625C5.58575 18.0155 5.95303 18.3828 6.40606 18.3828H8.59356C9.04659 18.3828 9.41387 18.0155 9.41387 17.5625V16.7047C10.1776 16.4497 10.8777 16.0451 11.4822 15.5094L12.2261 15.9389C12.6184 16.1654 13.1201 16.0309 13.3466 15.6386L14.4404 13.7442C14.5491 13.5558 14.5786 13.3319 14.5223 13.1218C14.4661 12.9116 14.3286 12.7324 14.1401 12.6237L13.3964 12.1943C13.4755 11.8026 13.5154 11.403 13.5154 11C13.5154 10.597 13.4755 10.1974 13.3964 9.80573L14.1401 9.37633C14.3285 9.26761 14.4661 9.0884 14.5223 8.87829ZM7.49975 13.1875C6.29165 13.1875 5.31225 12.2081 5.31225 11C5.31225 9.7919 6.29165 8.8125 7.49975 8.8125C8.70786 8.8125 9.68725 9.7919 9.68725 11C9.68725 12.2081 8.70786 13.1875 7.49975 13.1875Z" fill="#53CE93"/>
<path d="M19.75 9.25C19.0176 9.25 18.3903 9.70325 18.1304 10.3438H11.6562C11.294 10.3438 11 10.6378 11 11C11 11.3623 11.294 11.6562 11.6562 11.6562H18.1304C18.3903 12.2968 19.0176 12.75 19.75 12.75C20.7151 12.75 21.5 11.9651 21.5 11C21.5 10.0349 20.7151 9.25 19.75 9.25Z" fill="#53CE93" fill-opacity="0.7"/>
<path d="M19.75 3.125C19.0176 3.125 18.3903 3.57825 18.1304 4.21875H15.8125C15.6305 4.21875 15.4572 4.294 15.333 4.427L12.4647 7.5H11.6562C11.294 7.5 11 7.794 11 8.15625C11 8.5185 11.294 8.8125 11.6562 8.8125H12.75C12.932 8.8125 13.1053 8.73725 13.2295 8.60425L16.0978 5.53125H18.1304C18.3903 6.17175 19.0176 6.625 19.75 6.625C20.7151 6.625 21.5 5.84013 21.5 4.875C21.5 3.90987 20.7151 3.125 19.75 3.125Z" fill="#53CE93" fill-opacity="0.7"/>
<path d="M19.75 15.375C19.0176 15.375 18.3903 15.8282 18.1304 16.4687H16.0978L13.2295 13.3957C13.1053 13.2627 12.932 13.1875 12.75 13.1875H11.6562C11.294 13.1875 11 13.4815 11 13.8437C11 14.206 11.294 14.5 11.6562 14.5H12.4647L15.333 17.573C15.4572 17.706 15.6305 17.7812 15.8125 17.7812H18.1304C18.3903 18.4217 19.0176 18.875 19.75 18.875C20.7151 18.875 21.5 18.0901 21.5 17.125C21.5 16.1599 20.7151 15.375 19.75 15.375Z" fill="#53CE93" fill-opacity="0.7"/>
</g>
<defs>
<clipPath id="clip0">
<rect width="21" height="21" fill="white" transform="translate(0.5 0.5)"/>
</clipPath>
</defs>
</svg>
