<svg viewBox="0 0 24 24" fill="none" xmlns="http://www.w3.org/2000/svg">
  <path
    d="M2.40039 15.3736C2.40039 15.1393 2.63874 15.0117 2.80009 15.1579C6.6406 18.6381 16.7504 18.5685 20.5142 15.1579C20.6756 15.0117 20.9139 15.1393 20.9139 15.3736V17.689C20.8446 18.6209 20.0299 19.6077 18.7039 20.3532C15.1202 22.3686 8.1866 22.3643 4.61037 20.3532C3.28438 19.6077 2.46966 18.6209 2.40039 17.689V15.3736Z"
    fill="#CDA8F0" />
  <path
    d="M2.80015 9.96657C2.6388 9.82025 2.40039 9.94793 2.40039 10.1822V12.4522C2.46966 13.3841 3.28438 14.3709 4.61037 15.1164C8.18648 17.1275 15.1202 17.1318 18.7039 15.1164C20.0299 14.3709 20.8446 13.3841 20.9139 12.4522V10.1822C20.9139 9.94786 20.6755 9.82025 20.5142 9.96657C16.7142 13.412 6.59377 13.4063 2.80015 9.96657Z"
    fill="#9B51E0" />
  <path
    d="M18.0454 3.66228C19.8636 4.52463 20.8782 5.72356 20.9125 7.04489C20.9741 8.30308 19.7151 9.35646 18.7044 9.9247C15.1206 11.9401 8.18672 11.9357 4.61079 9.9247C2.00994 8.46247 1.9007 6.56254 3.26641 5.06637C5.79921 2.29269 13.3706 1.44697 18.0454 3.66228Z"
    fill="#CDA8F0" />
</svg>