<svg width="22" height="22" viewBox="0 0 22 22" fill="none" xmlns="http://www.w3.org/2000/svg">
<g clip-path="url(#clip0)">
<path d="M19.1304 13.8695C18.6317 13.3953 17.8344 13.3949 17.3493 13.8812L15.4299 15.8007L14.4473 14.8174C13.9549 14.3264 13.151 14.334 12.6663 14.8174C12.1642 15.3182 12.1659 16.111 12.6663 16.6114L14.5165 18.4598C14.7439 18.7138 15.0776 18.8596 15.4298 18.8596C15.7821 18.8596 16.1158 18.7138 16.3185 18.4858L19.1538 15.6628C19.6248 15.1672 19.6248 14.3898 19.1304 13.8695ZM15.6721 11.6559C15.9181 11.6355 16.1307 11.4742 16.2147 11.2424C16.5336 10.3668 16.7377 9.43361 16.7377 8.46895C16.7377 3.93295 13.0049 0.200195 8.46894 0.200195C3.93295 0.200195 0.200195 3.93295 0.200195 8.46895C0.200195 13.0049 3.93295 16.7377 8.46894 16.7377C9.39466 16.7377 10.3254 16.5342 11.2338 16.2172C11.4699 16.1344 11.6355 15.9212 11.6552 15.6721C11.8332 13.5234 13.5228 11.8345 15.6721 11.6559Z" fill="#56CCF2"/>
<path d="M7.83591 4.67188C7.83591 4.3221 8.11894 4.03906 8.46872 4.03906C8.8185 4.03906 9.10153 4.3221 9.10153 4.67188V8.46875C9.10153 8.6329 9.03445 8.79819 8.9154 8.91691L6.38491 11.4474C6.13769 11.6946 5.73725 11.6946 5.49007 11.4474C5.24289 11.2002 5.24289 10.7997 5.49007 10.5526L7.83591 8.20672V4.67188Z" fill="white"/>
<path d="M16.0625 10.3672C12.8402 10.3672 10.3672 12.9659 10.3672 16.0625C10.3672 19.2012 12.9238 21.8 16.0625 21.8C19.2012 21.8 21.8 19.2012 21.8 16.0625C21.8 12.9237 19.2012 10.3672 16.0625 10.3672Z" fill="#ABE5F8"/>
<path d="M15.8727 18.0371L18.6951 15.2273C18.9356 14.9743 18.9356 14.5819 18.6951 14.3288C18.442 14.0883 18.037 14.0883 17.7965 14.3288L15.4298 16.6955L13.9996 15.2654C13.7591 15.0249 13.3541 15.0249 13.1137 15.2654C12.8605 15.5185 12.8605 15.9108 13.1137 16.1639L14.9868 18.0371C15.1007 18.1636 15.2652 18.2269 15.4298 18.2269C15.5943 18.2269 15.7588 18.1636 15.8727 18.0371Z" fill="white"/>
</g>
<defs>
<clipPath id="clip0">
<rect width="21.6" height="21.6" fill="white" transform="translate(0.200195 0.200195)"/>
</clipPath>
</defs>
</svg>
